<svg xmlns="http://www.w3.org/2000/svg" xmlns:xlink="http://www.w3.org/1999/xlink" width="1027.57" height="244.202" viewBox="0 0 1027.57 244.202">
  <defs>
    <linearGradient id="linear-gradient" x1="0.5" x2="0.5" y2="1" gradientUnits="objectBoundingBox">
      <stop offset="0" stop-color="#ac86ec"/>
      <stop offset="1" stop-color="#6824db"/>
    </linearGradient>
    <linearGradient id="linear-gradient-2" x1="0.5" x2="0.5" y2="1" gradientUnits="objectBoundingBox">
      <stop offset="0" stop-color="#8a53e8"/>
      <stop offset="1" stop-color="#6824db"/>
    </linearGradient>
  </defs>
  <g id="Group_20" data-name="Group 20" transform="translate(-406.782 -134.985)">
    <g id="Sign" transform="translate(406.782 134.985)">
      <g id="layer102" transform="translate(0 0)">
        <path id="Path_1" data-name="Path 1" d="M57.252,204.137c-2.833-2.893-12.175-14.585-17.84-22.36C19.7,154.655,10,129.824,10,106.68A99.278,99.278,0,0,1,91.907,8.561a110.057,110.057,0,0,1,33.872,0,98.75,98.75,0,0,1,65.453,43.033A97.255,97.255,0,0,1,202.8,135.55c-2.953,9.221-12.3,29.171-13.681,29.171-.422,0-9.342-7.835-12.657-11.09l-1.386-1.326L179,144.168c7.232-15.007,9.523-23.927,9.523-37.307,0-9.4-.663-14.284-2.893-22.36a79.881,79.881,0,0,0-43.937-51.35,75.148,75.148,0,0,0-33.148-7.112c-39.115,0-72.022,28.146-78.652,67.261-1.085,6.328-.9,21.336.3,27.121C34.228,139.829,46.825,162.43,67.2,186.6l4.46,5.364-6.63,6.63C58.517,205.1,58.336,205.221,57.252,204.137Z" transform="translate(-10 -7.25)" fill="#dcdcdc"/>
        <path id="Exclusion_1" data-name="Exclusion 1" d="M-341.659-107.743a38.908,38.908,0,0,1-15.233-3.073,38.971,38.971,0,0,1-12.435-8.382,38.969,38.969,0,0,1-8.382-12.435,38.9,38.9,0,0,1-3.073-15.232,38.876,38.876,0,0,1,3.073-15.224,38.99,38.99,0,0,1,8.382-12.435,38.986,38.986,0,0,1,12.435-8.386,38.887,38.887,0,0,1,15.233-3.075,38.853,38.853,0,0,1,15.224,3.075A39.006,39.006,0,0,1-314-174.524a39.007,39.007,0,0,1,8.385,12.435,38.855,38.855,0,0,1,3.075,15.224,38.88,38.88,0,0,1-3.075,15.232A38.985,38.985,0,0,1-314-119.2a38.991,38.991,0,0,1-12.435,8.382A38.874,38.874,0,0,1-341.659-107.743Zm0-57.634a18.535,18.535,0,0,0-18.516,18.513,18.535,18.535,0,0,0,18.516,18.513,18.533,18.533,0,0,0,18.512-18.513A18.533,18.533,0,0,0-341.659-165.378Z" transform="translate(440.437 245.565)" fill="url(#linear-gradient)"/>
      </g>
      <g id="layer103" transform="translate(58.763 158.13)">
        <path id="Path_2" data-name="Path 2" d="M1020.559,2715.865c-1.447-.723-9.041-7.835-18.985-17.78L985,2681.511l7.232-7.232,7.232-7.232,12.837,12.777,12.838,12.838,10.065-10.246c11.753-11.993,28.508-29.954,39.537-42.43,4.279-4.822,7.835-8.92,7.956-9.04.181-.241,14.1,11.933,14.1,12.355,0,.6-20.07,24.228-21.938,25.856-.362.361-3.074,3.314-6.027,6.63-10.607,11.873-38.03,39.657-39.959,40.5A9.849,9.849,0,0,1,1020.559,2715.865Z" transform="translate(-985 -2630.942)" fill="url(#linear-gradient-2)"/>
      </g>
    </g>
    <path id="Path_11" data-name="Path 11" d="M11.476-1.963A1.758,1.758,0,0,0,13.137,0h3.02A1.755,1.755,0,0,0,18.12-1.963V-103.737a2,2,0,0,0-1.963-1.963H13.439a2,2,0,0,0-1.963,1.963ZM38.354-90a5.061,5.061,0,0,0,5.134-4.983,5.221,5.221,0,0,0-5.134-5.285,5.221,5.221,0,0,0-5.134,5.285A5.061,5.061,0,0,0,38.354-90ZM35.032-1.963A1.758,1.758,0,0,0,36.693,0h3.02a1.755,1.755,0,0,0,1.963-1.963V-58.437A2,2,0,0,0,39.713-60.4H36.995a2,2,0,0,0-1.963,1.963ZM55.719-5.285A30.766,30.766,0,0,0,75.5,1.51c12.08,0,21.442-7.7,21.442-16.761,0-11.023-9.966-14.8-21.291-19.026-8.909-3.171-14.345-6.04-14.345-12.08,0-4.077,3.473-9.664,12.986-9.664a28.544,28.544,0,0,1,13.892,4.228,2.027,2.027,0,0,0,2.869-.755l.906-1.661a2.117,2.117,0,0,0-.6-2.869A31.892,31.892,0,0,0,74.292-61.91c-13.892,0-19.781,9.06-19.781,15.7,0,9.362,7.852,14.043,18.573,17.818C83.2-24.613,90-21.744,90-14.8,90-8.909,84.107-4.077,75.5-4.077A26.819,26.819,0,0,1,59.343-9.966a1.759,1.759,0,0,0-2.718.151L55.115-7.4A1.672,1.672,0,0,0,55.719-5.285Zm55.266-10.268c0,9.664,1.057,17.063,13.59,17.063a30.048,30.048,0,0,0,17.516-5.587,1.737,1.737,0,0,0,.453-2.567l-1.057-1.812c-.453-.755-1.057-1.359-2.416-.6-1.963,1.208-8.456,4.077-13.741,4.077-7.1,0-7.852-3.926-7.852-11.023V-54.511h20.989a1.824,1.824,0,0,0,1.963-1.963v-1.963a1.9,1.9,0,0,0-1.963-1.963H117.478V-77.01a2,2,0,0,0-1.963-1.963l-2.567.151a1.9,1.9,0,0,0-1.963,1.963V-60.4h-7.1c-1.057,0-1.812.453-1.812,1.51v2.416c0,1.208.3,1.963,1.812,1.963h7.1Zm36.693-14.8C147.678-12.684,159,1.51,177.425,1.51c9.362,0,18.875-4.077,21.9-7.1.906-.906,1.057-1.812.6-2.416l-1.51-2.114c-.755-1.057-1.359-.906-2.718,0A32.233,32.233,0,0,1,177.878-4.53c-13.59,0-22.952-10.872-23.556-23.858h48.169c2.265,0,2.265-3.473,2.265-5.889,0-16.006-11.476-27.633-27.331-27.633C159-61.91,147.678-47.565,147.678-30.351Zm6.795-3.473c.755-12.382,9.664-22.046,22.952-22.046,13.59,0,20.687,10.268,20.687,22.046ZM212-30.351C212-12.684,225.292,1.51,242.355,1.51c16.912,0,30.351-14.194,30.351-31.861,0-17.214-13.439-31.559-30.351-31.559C225.292-61.91,212-47.565,212-30.351Zm6.493,0c0-13.892,10.419-25.217,23.858-25.217,13.288,0,23.707,11.325,23.707,25.217,0,14.345-10.419,25.67-23.707,25.67C228.916-4.681,218.5-16.006,218.5-30.351Z" transform="translate(666.133 308)" fill="#2f2f2f"/>
    <path id="Path_12" data-name="Path 12" d="M279.048-30.2c0,17.365,12.231,31.71,28.237,31.71a27,27,0,0,0,19.177-8.456l1.208,4.379C328.123-1.057,329.029,0,330.388,0h4.53a2.97,2.97,0,0,0,2.869-2.869v-99.962a2.97,2.97,0,0,0-2.869-2.869H326.16a2.97,2.97,0,0,0-2.869,2.869v44.243a36.364,36.364,0,0,0-14.5-3.322C292.034-61.91,279.048-47.867,279.048-30.2Zm14.043,0c0-10.268,7.1-18.573,17.214-18.573a25.055,25.055,0,0,1,13.137,3.624v24.613c-.755,1.661-5.134,9.06-14.345,9.06C299.433-11.476,293.091-20.083,293.091-30.2Zm65.232-54.813a8.8,8.8,0,0,0,8.909-8.758,8.83,8.83,0,0,0-8.909-8.909,8.673,8.673,0,0,0-8.607,8.909A8.637,8.637,0,0,0,358.323-85.013ZM351.377-2.869A2.97,2.97,0,0,0,354.246,0h8.607a2.97,2.97,0,0,0,2.869-2.869V-57.531a2.97,2.97,0,0,0-2.869-2.869h-8.607a2.97,2.97,0,0,0-2.869,2.869Zm27.935,0A2.97,2.97,0,0,0,382.181,0h7.248c2.416,0,4.077-.3,4.077-2.869V-41.223a15.915,15.915,0,0,1,13.59-7.4,13.816,13.816,0,0,1,5.134,1.057,2.575,2.575,0,0,0,3.624-1.359l3.624-7.4c1.661-4.077-5.285-5.587-11.023-5.587a21.521,21.521,0,0,0-17.667,8.758l-1.661-5.134A2.871,2.871,0,0,0,386.56-60.4h-4.379a2.97,2.97,0,0,0-2.869,2.869ZM419.176-30.2c0,17.365,12.08,31.71,30.351,31.71,10.117,0,17.969-3.775,22.348-7.55,1.812-1.51,1.359-2.718.3-3.926L467.949-15.7c-1.208-1.51-2.265-.906-4.077.151-3.02,1.963-8,4.379-13.439,4.379a17.485,17.485,0,0,1-17.365-16.157H474.14a2.777,2.777,0,0,0,2.718-2.567,37.023,37.023,0,0,0,.3-4.077c0-16.157-12.08-27.935-27.784-27.935C431.256-61.91,419.176-47.263,419.176-30.2Zm14.647-6.644a15.279,15.279,0,0,1,15.4-13.439c7.4,0,13.439,6.191,13.892,13.439Zm47.263,6.8A31.445,31.445,0,0,0,512.645,1.51a26.785,26.785,0,0,0,23.4-12.684c1.057-1.51.453-3.02-1.057-4.228l-4.077-3.322a2.762,2.762,0,0,0-4.077.3c-3.171,3.02-6.342,6.946-14.043,6.946-9.815,0-17.365-8.305-17.365-18.724,0-10.268,7.7-18.573,17.516-18.573a16.781,16.781,0,0,1,12.08,5.738c1.208,1.057,2.265,2.265,4.077.6l4.983-4.53a2.954,2.954,0,0,0,.6-4.228C529.1-58.135,522.007-61.91,512.8-61.91A32.13,32.13,0,0,0,481.086-30.049Zm67.95,13.59c0,10.721,3.473,17.969,15.4,17.969,7.248,0,16.157-3.624,17.667-4.53a2.5,2.5,0,0,0,1.359-3.624l-2.718-6.644c-.6-1.359-1.51-2.265-3.473-1.359-1.812.906-6.04,2.718-9.211,2.718-2.869,0-4.832-.906-4.832-6.04v-29.9h15.4a2.867,2.867,0,0,0,2.869-2.869v-6.795a2.777,2.777,0,0,0-2.869-2.869h-15.4V-77.312a2.839,2.839,0,0,0-2.718-2.869l-8.607.151a2.97,2.97,0,0,0-2.869,2.869V-60.4h-6.342a2.776,2.776,0,0,0-2.869,2.869v6.795a2.867,2.867,0,0,0,2.869,2.869h6.342Zm37.75-13.892c0,17.365,13.59,31.861,30.5,31.861s30.5-14.5,30.5-31.861c0-17.063-13.59-31.559-30.5-31.559S586.786-47.414,586.786-30.351Zm13.439,0c0-10.117,7.55-18.422,17.063-18.422s17.063,8.305,17.063,18.422c0,10.419-7.55,18.875-17.063,18.875S600.225-19.932,600.225-30.351ZM656.85-2.869A2.97,2.97,0,0,0,659.719,0h7.248c2.416,0,4.077-.3,4.077-2.869V-41.223a15.915,15.915,0,0,1,13.59-7.4,13.817,13.817,0,0,1,5.134,1.057,2.575,2.575,0,0,0,3.624-1.359l3.624-7.4c1.661-4.077-5.285-5.587-11.023-5.587a21.521,21.521,0,0,0-17.667,8.758l-1.661-5.134A2.871,2.871,0,0,0,664.1-60.4h-4.379a2.97,2.97,0,0,0-2.869,2.869Zm70.819.755L707.435,41.223A2.7,2.7,0,0,0,710,45.3h9.06a3.019,3.019,0,0,0,2.567-1.812l46.206-99.962c1.057-1.963-.151-3.926-2.567-3.926h-8.607c-1.359,0-2.567.3-3.171,1.661L735.37-18.573h-.151L716.495-58.739a3.282,3.282,0,0,0-2.567-1.661h-9.966a2.666,2.666,0,0,0-2.567,3.926Z" transform="translate(666.133 308)" fill="#6824db"/>
  </g>
</svg>
